<svg width="24" height="28" viewBox="0 0 24 28" fill="none" xmlns="http://www.w3.org/2000/svg">
<g clip-path="url(#clip0_1_326)">
<path d="M17.94 20.6292C16.2306 22.1175 14.1491 22.942 12 22.9821C5 22.9821 1 13.8444 1 13.8444C2.24389 11.1966 3.96914 8.88328 6.06 7.0596M9.9 4.98076C10.5883 4.79673 11.2931 4.70474 12 4.70663C19 4.70663 23 13.8444 23 13.8444C22.393 15.1415 21.6691 16.3627 20.84 17.4881M14.12 16.2659C13.8454 16.6025 13.5141 16.8726 13.1462 17.0599C12.7782 17.2472 12.3809 17.3479 11.9781 17.356C11.5753 17.3641 11.1752 17.2795 10.8016 17.1071C10.4281 16.9348 10.0887 16.6783 9.80385 16.3529C9.51897 16.0275 9.29439 15.6399 9.14351 15.2132C8.99262 14.7865 8.91853 14.3295 8.92563 13.8694C8.93274 13.4093 9.02091 12.9556 9.18488 12.5352C9.34884 12.1149 9.58525 11.7366 9.88 11.4229" stroke="black" stroke-width="2" stroke-linecap="round" stroke-linejoin="round"/>
<path d="M1 1.27997L23 26.4088" stroke="black" stroke-width="2" stroke-linecap="round" stroke-linejoin="round"/>
</g>
<defs>
<clipPath id="clip0_1_326">
<rect width="24" height="27.4132" fill="white" transform="translate(0 0.137756)"/>
</clipPath>
</defs>
</svg>
